<svg width="17" height="16" viewBox="0 0 17 16" fill="none" xmlns="http://www.w3.org/2000/svg">
<path d="M4.675 0.499573C2.09304 0.499573 0 2.55124 0 5.08291C0 7.73625 1.54147 10.2396 4.09063 12.5313C4.96069 13.3129 5.89747 13.9988 6.82652 14.6146C7.15216 14.8296 7.45671 15.0246 7.72973 15.1871C7.89616 15.2863 8.0059 15.3579 8.075 15.3954C8.3317 15.5354 8.6683 15.5354 8.925 15.3954C8.99411 15.3579 9.10384 15.2863 9.27027 15.1871C9.54329 15.0246 9.84785 14.8296 10.1735 14.6146C11.1025 13.9988 12.0393 13.3129 12.9094 12.5313C15.4585 10.2396 17 7.73625 17 5.08291C17 2.55124 14.907 0.499573 12.325 0.499573C10.8586 0.499573 9.42684 1.28292 8.52652 2.42625C7.64864 1.26292 6.22192 0.499573 4.675 0.499573Z" fill="white"/>
</svg>
