<svg xmlns="http://www.w3.org/2000/svg" width="17" height="15" viewBox="0 0 17 15" fill="none">
<path d="M4.675 0C2.09304 0 0 2.05167 0 4.58334C0 7.23668 1.54147 9.74001 4.09063 12.0317C4.96069 12.8133 5.89747 13.4992 6.82652 14.115C7.15216 14.33 7.45671 14.525 7.72973 14.6875C7.89616 14.7867 8.0059 14.8584 8.075 14.8959C8.3317 15.0359 8.6683 15.0359 8.925 14.8959C8.99411 14.8584 9.10384 14.7867 9.27027 14.6875C9.54329 14.525 9.84785 14.33 10.1735 14.115C11.1025 13.4992 12.0393 12.8133 12.9094 12.0317C15.4585 9.74001 17 7.23668 17 4.58334C17 2.05167 14.907 0 12.325 0C10.8586 0 9.42684 0.783345 8.52652 1.92668C7.64864 0.763344 6.22192 0 4.675 0Z" fill="#213856"/>
</svg>