<svg width="28" height="28" viewBox="0 0 28 28" fill="none" xmlns="http://www.w3.org/2000/svg">
<path fill-rule="evenodd" clip-rule="evenodd" d="M5.82636 13.7089H22.1597V6.7089H5.82636V13.7089ZM20.7014 20.125C19.8956 20.125 19.243 19.473 19.243 18.667C19.243 17.8611 19.8956 17.2083 20.7014 17.2083C21.5064 17.2083 22.1597 17.8611 22.1597 18.667C22.1597 19.473 21.5064 20.125 20.7014 20.125V20.125ZM11.6591 18.6597C11.6591 18.9819 11.9203 19.243 12.2425 19.243H15.7425C16.0646 19.243 16.3258 18.9819 16.3258 18.6597V18.6597C16.3258 18.3375 16.0646 18.0764 15.7425 18.0764H12.2425C11.9203 18.0764 11.6591 18.3375 11.6591 18.6597V18.6597ZM5.82636 18.667C5.82636 17.8618 6.47896 17.2083 7.28469 17.2083C8.09042 17.2083 8.74302 17.8618 8.74302 18.667C8.74302 19.473 8.09042 20.125 7.28469 20.125C6.47896 20.125 5.82636 19.473 5.82636 18.667ZM5.88817 2.91675C4.56925 2.91675 3.5 3.98483 3.5 5.30316L3.5 20.4162C3.5 21.7048 4.54467 22.7495 5.83333 22.7495V22.7495V23.9167C5.83333 25.2054 6.878 26.2501 8.16667 26.2501V26.2501C9.45533 26.2501 10.5 25.2054 10.5 23.9167V22.7495H17.5V23.9173C17.5 25.206 18.5447 26.2507 19.8333 26.2507V26.2507C21.122 26.2507 22.1667 25.206 22.1667 23.9173V22.7495V22.7495C23.4553 22.7495 24.5 21.7048 24.5 20.4162V5.30316C24.5 3.98483 23.4308 2.91675 22.113 2.91675H5.88817Z" fill="#213856"/>
</svg>
