<svg width="28" height="28" viewBox="0 0 28 28" fill="none" xmlns="http://www.w3.org/2000/svg">
<path fill-rule="evenodd" clip-rule="evenodd" d="M21.7438 18.083C20.7772 18.083 19.9938 17.3002 19.9938 16.3342C19.9938 15.3676 20.7772 14.583 21.7438 14.583C22.7098 14.583 23.4938 15.3676 23.4938 16.3342C23.4938 17.3002 22.7098 18.083 21.7438 18.083ZM11.0833 16.3333C11.0833 16.6555 11.3445 16.9167 11.6667 16.9167H16.3333C16.6555 16.9167 16.9167 16.6555 16.9167 16.3333C16.9167 16.0112 16.6555 15.75 16.3333 15.75H11.6667C11.3445 15.75 11.0833 16.0112 11.0833 16.3333ZM6.25624 18.083C5.28965 18.083 4.50624 17.3002 4.50624 16.3342C4.50624 15.3676 5.28965 14.583 6.25624 14.583C7.22224 14.583 8.00624 15.3676 8.00624 16.3342C8.00624 17.3002 7.22224 18.083 6.25624 18.083ZM8.10834 6.55582C8.10834 6.55582 8.3368 5.9363 8.99524 5.9363H19.0047C19.6632 5.9363 19.8916 6.55582 19.8916 6.55582L21.5215 10.8776H6.47848L8.10834 6.55582ZM23.9801 11.3649L21.8051 5.599C21.8051 5.599 21.2832 4.08325 19.6087 4.08325H16.9657H11.0343H8.39134C6.71676 4.08325 6.1943 5.599 6.1943 5.599L4.01931 11.3649V11.3964C2.74286 11.5527 1.75 12.6354 1.75 13.9659V19.8592C1.75 20.8257 2.5335 21.6092 3.5 21.6092H4.67792V23.2062C4.67792 24.2438 5.76168 25.0833 6.77598 25.0833C7.79089 25.0833 8.72907 24.2438 8.72907 23.2062V21.6092H19.2928V23.2062C19.2928 24.2438 20.3315 25.0833 21.3458 25.0833C22.3607 25.0833 23.369 24.2438 23.369 23.2062V21.6092H24.5C25.4665 21.6092 26.25 20.8257 26.25 19.8592V13.9659C26.25 12.6354 25.2571 11.5527 23.9801 11.3964V11.3649Z" fill="#213856"/>
</svg>
