<svg width="28" height="28" viewBox="0 0 28 28" fill="none" xmlns="http://www.w3.org/2000/svg">
<path fill-rule="evenodd" clip-rule="evenodd" d="M18.3751 18.3015C18.3751 17.657 18.8978 17.1337 19.5418 17.1337C20.1864 17.1337 20.7085 17.657 20.7085 18.3015C20.7085 18.9455 20.1864 19.4682 19.5418 19.4682C18.8978 19.4682 18.3751 18.9455 18.3751 18.3015ZM7.29181 18.3015C7.29181 17.657 7.81448 17.1337 8.45848 17.1337C9.10306 17.1337 9.62514 17.657 9.62514 18.3015C9.62514 18.9455 9.10306 19.4682 8.45848 19.4682C7.81448 19.4682 7.29181 18.9455 7.29181 18.3015ZM6.41681 14.0006C6.41681 14.3227 6.67798 14.5839 7.00014 14.5839H21.0001C21.3223 14.5839 21.5835 14.3227 21.5835 14.0006V8.16724C21.5835 7.84507 21.3223 7.5839 21.0001 7.5839H7.00014C6.67798 7.5839 6.41681 7.84507 6.41681 8.16724V14.0006ZM21.0002 21.5839H21.5835C22.8722 21.5839 23.9168 20.5392 23.9168 19.2506V6.41725C23.9168 4.82708 22.5898 3.50058 21.0002 3.50058H19.2502L18.5665 2.13325C18.5665 2.13325 18.4504 1.75 18.0578 1.75H9.84801C9.45659 1.75 9.33992 2.13325 9.33992 2.13325L8.75017 3.50058H7.00017C5.41001 3.50058 4.0835 4.82708 4.0835 6.41725V19.2506C4.0835 20.5392 5.12817 21.5839 6.41684 21.5839H7.00017L4.24159 25.1335C3.9645 25.5296 4.06075 26.075 4.45684 26.3521C4.60967 26.4588 4.78467 26.5102 4.95792 26.5102C5.23384 26.5102 5.50567 26.3801 5.67542 26.1374C5.67542 26.1374 9.31134 21.6312 9.33351 21.5833H18.6668C18.6884 21.6312 22.3249 26.1374 22.3249 26.1374C22.4953 26.3801 22.7665 26.5102 23.043 26.5102C23.2163 26.5102 23.3913 26.4588 23.5435 26.3521C23.9396 26.075 24.0358 25.5296 23.7588 25.1335L21.0002 21.5839Z" fill="#213856"/>
</svg>
