<svg width="90" height="20" viewBox="0 0 90 20" fill="none" xmlns="http://www.w3.org/2000/svg">
<path d="M22.4784 7.732C21.6264 8.704 20.2464 9.562 18.3384 10.306L17.4744 8.38C18.7464 7.876 19.7064 7.33 20.3544 6.742C21.0024 6.142 21.3864 5.476 21.5064 4.744H18.0324V2.728H21.5604V1H23.7564V2.728H27.3744V4.744H23.7384C23.7024 5.14 23.6184 5.542 23.4864 5.95L27.9324 8.11L26.9424 10.054L22.4784 7.732ZM26.6724 7.066V5.104H29.6064V1.18H31.9104V9.73H29.6064V7.066H26.6724ZM22.8024 15.202V16.192H32.4324V18.082H20.4984V13.384H29.6064V12.484H20.4084V10.648H31.9104V15.202H22.8024Z" fill="#213856"/>
<path d="M14.86 13.618H12.538V1.17999H14.86V13.618ZM9.622 10.666H1V1.98999H9.622V10.666ZM3.232 4.00599V8.64999H7.39V4.00599H3.232ZM15.472 17.992H3.448V12.556H5.734V15.904H15.472V17.992Z" fill="#213856"/>
<path d="M41.1074 2.04056C38.5254 2.04056 36.4324 4.09223 36.4324 6.6239C36.4324 9.27724 37.9738 11.7806 40.523 14.0722C41.3931 14.8539 42.3298 15.5397 43.2589 16.1556C43.5845 16.3706 43.8891 16.5656 44.1621 16.7281C44.3285 16.8273 44.4383 16.8989 44.5074 16.9364C44.7641 17.0764 45.1007 17.0764 45.3574 16.9364C45.4265 16.8989 45.5362 16.8273 45.7026 16.7281C45.9757 16.5656 46.2802 16.3706 46.6059 16.1556C47.5349 15.5397 48.4717 14.8539 49.3417 14.0722C51.8909 11.7806 53.4324 9.27724 53.4324 6.6239C53.4324 4.09223 51.3393 2.04056 48.7574 2.04056C47.291 2.04056 45.8592 2.8239 44.9589 3.96724C44.081 2.8039 42.6543 2.04056 41.1074 2.04056Z" fill="#F88A88"/>
<path d="M86.7768 17.902V1.09H89.0808V17.902H86.7768ZM75.5988 4.438V2.332H83.8968V3.988C83.8968 6.364 83.2608 8.572 81.9888 10.612C80.7288 12.652 78.9048 14.446 76.5168 15.994L75.1128 14.176C76.5408 13.276 77.7348 12.28 78.6948 11.188C79.6668 10.084 80.3868 8.956 80.8548 7.804C81.3228 6.652 81.5568 5.53 81.5568 4.438H75.5988Z" fill="#213856"/>
<path d="M64.7044 5.08598C63.5644 5.90198 61.7464 6.54398 59.2504 7.01198L58.6744 5.06798C60.6664 4.65998 62.1124 4.17998 63.0124 3.62798C63.9124 3.06398 64.3624 2.42198 64.3624 1.70198V1.14398H66.5224V1.70198C66.5224 2.28998 66.4144 2.83598 66.1984 3.33998L72.0304 5.10398L71.3104 7.01198L64.7044 5.08598ZM57.4324 9.51398V7.69598H73.2724V9.51398H57.4324ZM71.4364 15.148H61.5724V16.156H71.8864V17.992H59.2864V13.384H69.1324V12.43H59.1964V10.63H71.4364V15.148Z" fill="#213856"/>
</svg>
